<svg xmlns="http://www.w3.org/2000/svg" xmlns:xlink="http://www.w3.org/1999/xlink" width="199.581" height="134.566" viewBox="0 0 199.581 134.566">
  <defs>
    <clipPath id="clip-path">
      <rect id="Rectangle_6" data-name="Rectangle 6" width="199.581" height="134.566" transform="translate(0 0)" fill="none"/>
    </clipPath>
  </defs>
  <g id="Group_4" data-name="Group 4" transform="translate(0 -0.002)">
    <g id="Group_3" data-name="Group 3" transform="translate(0 0.002)" clip-path="url(#clip-path)">
      <path id="Path_15" data-name="Path 15" d="M513.381,27.668a43.432,43.432,0,0,1,12.7,9.052l23.528-8.561A67.241,67.241,0,0,0,427.844,72.468l23.528-8.557a43.6,43.6,0,0,1,62.009-36.243" transform="translate(-390.58 -0.002)" fill="#e00"/>
      <path id="Path_16" data-name="Path 16" d="M345.881,917.759l-22.354,8.14a68.112,68.112,0,0,0,10.508,22.78l23.476-8.54a43.922,43.922,0,0,1-11.629-22.38" transform="translate(-295.494 -838.236)" fill="#e00"/>
      <path id="Path_17" data-name="Path 17" d="M671.126,725.334a43.021,43.021,0,0,1-3.95,15.1,43.749,43.749,0,0,1-58.089,21.146,43.3,43.3,0,0,1-12.733-9.039l-23.472,8.548a66.661,66.661,0,0,0,26.244,21.863A67.37,67.37,0,0,0,688.543,750.4a66.564,66.564,0,0,0,6.054-33.61Z" transform="translate(-523.242 -654.685)" fill="#e00"/>
      <path id="Path_18" data-name="Path 18" d="M1537.856,483.914l-22.35,8.137a43.888,43.888,0,0,1,5.471,24.609l23.476-8.535a67.842,67.842,0,0,0-6.6-24.212" transform="translate(-1384.188 -441.983)" fill="#e00"/>
      <path id="Path_19" data-name="Path 19" d="M566.573,696.386l-23.528,8.565a68.36,68.36,0,0,0,1.864,11.147l22.35-8.136a43.834,43.834,0,0,1-.687-11.577" transform="translate(-495.99 -636.045)" fill="#c00"/>
      <path id="Path_20" data-name="Path 20" d="M1706.065,293.5a67.169,67.169,0,0,0-5.741-9.745l-23.523,8.57a43.737,43.737,0,0,1,6.91,9.309Z" transform="translate(-1531.507 -259.166)" fill="#c00"/>
      <path id="Path_21" data-name="Path 21" d="M572.882,761.091a66.934,66.934,0,0,0,5.98,7.266l25.557-9.321a43.231,43.231,0,0,1-8.066-6.493Zm121.715-44.3-23.471,8.535a43.027,43.027,0,0,1-1.986,10.1l25.548-9.322a66.629,66.629,0,0,0-.091-9.317" transform="translate(-523.242 -654.685)" fill="#c00"/>
      <path id="Path_22" data-name="Path 22" d="M566.481,701.115a42.938,42.938,0,0,1,.091-4.728l-23.528,8.565c.117,1.512.313,3.007.539,4.5Z" transform="translate(-495.99 -636.046)" fill="#a30000"/>
      <path id="Path_23" data-name="Path 23" d="M1702.7,287.3c-.743-1.2-1.508-2.39-2.329-3.546l-23.519,8.57a39.624,39.624,0,0,1,2.895,3.333Z" transform="translate(-1531.549 -259.165)" fill="#a30000"/>
      <path id="Path_24" data-name="Path 24" d="M25,844.909s-.158-2.686-.226-4.576L0,849.334c-.03,2.22.18,4.636.18,4.636Z" transform="translate(0 -767.519)" fill="#5f0000"/>
      <path id="Path_25" data-name="Path 25" d="M104.914,618.935a55.145,55.145,0,0,0-1.526,10.138l22.575-8.217a44.84,44.84,0,0,1,1.519-10.12Z" transform="translate(-94.429 -557.815)" fill="#8f0000"/>
      <path id="Path_26" data-name="Path 26" d="M930.643,693.255s-.391-2.491-.478-4.523L906.6,697.311a40.839,40.839,0,0,0,.48,4.522Z" transform="translate(-828.044 -629.054)" fill="#5f0000"/>
      <path id="Path_27" data-name="Path 27" d="M743.912,880.517a53.91,53.91,0,0,0,4.939,10.051l20.957-7.609a38.006,38.006,0,0,1-4.667-10.067Z" transform="translate(-679.453 -797.257)" fill="#8f0000"/>
      <path id="Path_28" data-name="Path 28" d="M289.476,1323.83c2.684,3.241,6.607,7.024,6.607,7.024l23.494-8.569s-3.964-3.8-6.6-7.016Z" transform="translate(-264.393 -1201.303)" fill="#8f0000"/>
      <path id="Path_1324" data-name="Path 1324" d="M688.855,193.991s.551,2.279.965,4.268l25.35-9.211c-.392-1.907-.959-4.313-.959-4.313Z" transform="translate(-521.8 -137.483)" fill="#5f0000"/>
      <path id="Path_1325" data-name="Path 1325" d="M753.47,238.661a67.71,67.71,0,0,0-.1-9.486l-22.224,8.094a69.466,69.466,0,0,1,.089,9.453Z" transform="translate(-554.209 -171.535)" fill="#8f0000"/>
      <path id="Path_1328" data-name="Path 1328" d="M670.291,23.069a78.542,78.542,0,0,0-7.18-6.745l-23.3,8.5A74.006,74.006,0,0,1,647,31.545Z" transform="translate(-484.221 -8.437)" fill="#8f0000"/>
    </g>
  </g>
</svg>
